<svg width="25" height="25" viewBox="0 0 25 25" fill="none" xmlns="http://www.w3.org/2000/svg">
<mask id="mask0_2003_2788" style="mask-type:luminance" maskUnits="userSpaceOnUse" x="4" y="4" width="17" height="17">
<path d="M4.41211 4.2207H20.4121V20.2207H4.41211V4.2207Z" fill="white"/>
</mask>
<g mask="url(#mask0_2003_2788)">
<path fill-rule="evenodd" clip-rule="evenodd" d="M8.63611 11.7207C8.70611 9.9237 9.15111 8.3277 9.81611 7.1657C10.4161 6.1137 11.1551 5.4787 11.9121 5.2857V11.7207H8.63611ZM9.48811 5.8587C9.28896 6.11544 9.1085 6.38613 8.94811 6.6687C8.18511 8.0027 7.70511 9.7757 7.63411 11.7207H5.43011C5.51974 10.4698 5.9436 9.26589 6.65742 8.23473C7.37124 7.20358 8.34884 6.383 9.48811 5.8587ZM4.41211 12.2207C4.41211 10.099 5.25496 8.06414 6.75526 6.56385C8.25555 5.06356 10.2904 4.2207 12.4121 4.2207C14.5338 4.2207 16.5687 5.06356 18.069 6.56385C19.5693 8.06414 20.4121 10.099 20.4121 12.2207C20.4121 14.3424 19.5693 16.3773 18.069 17.8776C16.5687 19.3778 14.5338 20.2207 12.4121 20.2207C10.2904 20.2207 8.25555 19.3778 6.75526 17.8776C5.25496 16.3773 4.41211 14.3424 4.41211 12.2207ZM9.48811 18.5827C8.34884 18.0584 7.37124 17.2378 6.65742 16.2067C5.9436 15.1755 5.51974 13.9716 5.43011 12.7207H7.63511C7.70511 14.6677 8.18511 16.4397 8.94711 17.7717C9.11211 18.0617 9.29311 18.3327 9.48811 18.5827ZM15.3361 18.5827C16.4754 18.0585 17.4531 17.2379 18.1669 16.2068C18.8808 15.1756 19.3046 13.9716 19.3941 12.7207H17.1891C17.1191 14.6677 16.6391 16.4397 15.8771 17.7717C15.7121 18.0617 15.5311 18.3327 15.3361 18.5827ZM19.3941 11.7207H17.1891C17.1191 9.7747 16.6391 8.0017 15.8771 6.6697C15.7165 6.38674 15.5357 6.11571 15.3361 5.8587C16.4754 6.38291 17.4531 7.20347 18.1669 8.23464C18.8808 9.26581 19.3046 10.4698 19.3941 11.7207ZM12.9121 11.7207V5.2847C13.6691 5.4787 14.4071 6.1137 15.0091 7.1647C15.6731 8.3277 16.1181 9.9237 16.1891 11.7207H12.9121ZM8.63611 12.7207H11.9121V19.1567C11.1551 18.9627 10.4171 18.3277 9.81511 17.2767C9.15111 16.1137 8.70611 14.5177 8.63511 12.7207H8.63611ZM12.9121 12.7207V19.1567C13.6691 18.9627 14.4071 18.3277 15.0091 17.2767C15.6731 16.1137 16.1181 14.5177 16.1891 12.7207H12.9121Z" fill="#ACF3A6" fill-opacity="0.8"/>
</g>
</svg>
